<?xml version="1.0" encoding="UTF-8"?>
<svg id="Layer_2" data-name="Layer 2" xmlns="http://www.w3.org/2000/svg" viewBox="0 0 451.4 98.98">
  <defs>
    <style>
      .cls-1 {
        fill: #12aae2;
      }

      .cls-2 {
        fill: #1f3c71;
      }
    </style>
  </defs>
  <g id="Layer_1-2" data-name="Layer 1">
    <g>
      <g>
        <path class="cls-2" d="M28.47,47.05v-18.52H10.71v18.52H0V.88h10.71v18.08h17.76V.88h10.71v46.16h-10.71Z"/>
        <path class="cls-2" d="M68.08,47.8c-12.41,0-19.33-6.68-19.33-19.52V.88h10.71v26.64c0,6.55,2.77,10.52,8.88,10.52s8.82-3.97,8.82-10.52V.88h10.71v27.4c0,12.85-7.37,19.52-19.78,19.52Z"/>
        <path class="cls-2" d="M118.39,10.71v36.34h-10.71V10.71h-13.86V.88h38.42v9.83h-13.86Z"/>
        <path class="cls-2" d="M160.34,47.8c-15.05,0-25.25-10.14-25.25-23.81S145.28.13,160.34.13c5.35,0,10.27,1.57,14.42,4.03l-3.27,9.07c-3.4-1.89-7.24-3.09-11.02-3.09-8.63,0-13.98,5.29-13.98,13.86s5.35,13.86,13.98,13.86c3.78,0,8.06-1.26,11.53-3.4l3.21,9.07c-4.03,2.64-9.57,4.28-14.86,4.28Z"/>
        <path class="cls-2" d="M210.72,47.05v-18.52h-17.76v18.52h-10.71V.88h10.71v18.08h17.76V.88h10.71v46.16h-10.71Z"/>
        <path class="cls-2" d="M231.81,47.05V.88h10.71v46.16h-10.71Z"/>
        <path class="cls-2" d="M265,47.8c-5.23,0-11.53-2.08-15.56-4.72l2.96-9.7c3.72,2.71,8.56,4.47,12.91,4.47,3.78,0,5.23-1.76,5.23-4.03,0-2.39-1.2-4.03-8.25-6.87-8.12-3.27-10.96-8-10.96-13.54,0-6.74,5.48-13.29,16.25-13.29,5.04,0,10.2,1.76,12.91,3.59l-2.71,9.57c-2.64-1.83-6.93-3.78-10.2-3.78-3.9,0-5.48,1.83-5.48,3.72,0,3.02,2.33,4.03,8.12,6.49,8.63,3.65,11.21,7.81,11.21,13.73,0,7.37-5.35,14.36-16.44,14.36Z"/>
        <path class="cls-2" d="M310.15,47.8c-14.3,0-23.43-10.27-23.43-23.81S296.3.13,310.6.13s23.43,10.27,23.43,23.87-9.64,23.81-23.87,23.81ZM310.34,9.7c-7.31,0-12.22,5.98-12.22,14.3s4.91,14.3,12.22,14.3,12.22-6.05,12.22-14.3-4.91-14.3-12.22-14.3Z"/>
        <path class="cls-2" d="M381.07,47.93l-27.84-25v24.12h-10.71V.25l1.45-.25,27.46,24.81V.88h10.71v46.86l-1.07.19Z"/>
      </g>
      <g>
        <path class="cls-1" d="M208.31,98.98c-5.23,0-11.53-2.08-15.56-4.72l2.96-9.7c3.72,2.71,8.57,4.47,12.91,4.47,3.78,0,5.23-1.76,5.23-4.03,0-2.39-1.2-4.03-8.25-6.87-8.12-3.27-10.96-8-10.96-13.54,0-6.74,5.48-13.29,16.25-13.29,5.04,0,10.2,1.76,12.91,3.59l-2.71,9.57c-2.64-1.83-6.93-3.78-10.2-3.78-3.9,0-5.48,1.83-5.48,3.72,0,3.02,2.33,4.03,8.12,6.49,8.63,3.65,11.21,7.81,11.21,13.73,0,7.37-5.35,14.36-16.44,14.36Z"/>
        <path class="cls-1" d="M251.07,98.98c-12.41,0-19.33-6.68-19.33-19.52v-27.4h10.71v26.64c0,6.55,2.77,10.52,8.88,10.52s8.82-3.97,8.82-10.52v-26.64h10.71v27.4c0,12.85-7.37,19.52-19.78,19.52Z"/>
        <path class="cls-1" d="M317.83,98.22l-.57-22.67-12.79,16.19h-1.13l-12.91-16.19-.44,22.67h-10.33l2.14-46.48,1.45-.13,20.91,26.39,20.41-26.39,1.45.13,2.2,46.48h-10.39Z"/>
        <path class="cls-1" d="M375.2,98.22l-.57-22.67-12.79,16.19h-1.13l-12.91-16.19-.44,22.67h-10.33l2.14-46.48,1.45-.13,20.91,26.39,20.41-26.39,1.45.13,2.2,46.48h-10.39Z"/>
        <path class="cls-1" d="M395.35,98.22v-46.16h10.71v46.16h-10.71Z"/>
        <path class="cls-1" d="M437.54,61.88v36.34h-10.71v-36.34h-13.86v-9.82h38.42v9.82h-13.86Z"/>
      </g>
    </g>
  </g>
</svg>